<svg version="1.0" xmlns="http://www.w3.org/2000/svg" xmlns:xlink="http://www.w3.org/1999/xlink" width="100%" height="100%" viewBox="0 0 140 140" preserveAspectRatio="xMidYMid meet" color-interpolation-filters="sRGB" style="margin: auto;">
  <circle cx="70" cy="70" r="70" fill="#ffffff" fill-opacity="1" class="background"></circle>
  <g fill="#333" class="icon-text-wrapper icon-svg-group iconsvg" transform="translate(20, 39.4941520690918)">
    <g class="iconsvg-imagesvg" transform="translate(0,0)">
      <g>
        <rect fill="#333" fill-opacity="0" stroke-width="2" x="0" y="0" width="100" height="61.011695942112105" class="image-rect"></rect>
        <svg filter="url(#colors2308396128)" x="0" y="0" width="100" height="61.011695942112105" filtersec="colorsf1366028121" class="image-svg-svg primary" style="overflow: visible;">
          <svg xmlns="http://www.w3.org/2000/svg" xmlns:xlink="http://www.w3.org/1999/xlink" viewBox="0.001999974250793457 0.004001617431640625 67.61000061035156 41.250003814697266">
            <path transform="translate(1.1520000000000001 44.784000000000006)" d="M2.95-4.75C4.97-4.75 9.94-13.90 12.96-13.90C13.10-13.90 13.32-13.82 13.39-13.82C13.90-12.96 14.04-11.88 14.04-10.87C14.04-9.36 13.68-7.99 13.61-7.63C13.61-7.42 13.68-7.20 13.75-6.98C14.11-6.34 14.98-5.83 15.70-5.83C15.91-5.83 16.20-5.90 16.34-6.12C17.28-7.42 22.54-12.17 26.28-12.17C27.94-12.17 30.17-6.12 36.36-5.98L36.58-5.98C39.74-5.98 42.19-9.50 43.27-11.30C43.42-11.52 43.49-11.74 43.49-11.95C43.49-12.17 43.42-12.38 43.34-12.53C42.98-13.10 42.12-13.54 41.47-13.54C41.18-13.54 40.90-13.46 40.75-13.25C39.74-11.59 37.58-8.21 35.28-8.21L35.21-8.21C30.74-8.35 29.66-14.40 24.98-14.40C21.96-14.40 18.72-12.31 16.85-10.73C16.63-13.10 15.55-15.19 13.18-15.91C12.82-15.98 12.46-16.06 12.10-16.06C7.13-16.06 2.30-6.98 1.80-6.98C1.66-7.34 1.66-7.78 1.66-8.21C1.66-9.86 2.30-11.81 2.59-12.24C2.66-12.38 2.74-12.46 2.74-12.60C2.74-12.74 2.66-12.89 2.59-13.03C2.23-13.68 1.30-14.18 0.65-14.18C0.36-14.18 0.14-14.11-0.07-13.90C-0.43-13.18-1.15-11.30-1.15-9.36C-1.15-8.42-0.94-7.49-0.50-6.70C0-5.69 1.01-4.90 2.88-4.75ZM54.65-3.53C60.05-3.53 64.08-8.71 66.31-11.59C66.46-11.74 66.46-11.88 66.46-12.02C66.46-12.17 66.46-12.31 66.31-12.46C66.02-13.03 65.09-13.61 64.44-13.61C64.15-13.61 63.86-13.54 63.72-13.32C61.85-10.87 57.96-5.76 53.42-5.76C49.10-5.76 46.30-8.57 44.57-11.74C50.62-16.56 54.36-26.28 54.65-33.70L54.65-34.70C54.65-36.50 54.50-38.16 53.93-39.60C52.63-42.55 50.76-44.78 47.23-44.78L46.80-44.78C41.04-44.50 38.09-36.79 38.09-28.08C38.09-22.68 39.24-16.92 41.62-12.38L41.76-12.17C44.28-7.56 48.53-3.53 54.65-3.53ZM48.53-42.55C48.96-42.55 49.39-42.48 49.61-42.34C50.11-42.12 50.47-41.69 50.76-41.11C51.84-39.24 51.91-36.07 51.91-34.70C51.55-28.08 48.38-19.37 43.20-14.54C41.69-18.36 40.90-23.11 40.90-27.50C40.90-35.28 43.27-42.34 48.17-42.55Z"></path>
          </svg>
        </svg>
        <defs>
          <filter id="colors2308396128">
            <feColorMatrix type="matrix" values="0 0 0 0 0.19921875  0 0 0 0 0.19921875  0 0 0 0 0.19921875  0 0 0 1 0" class="icon-fecolormatrix"></feColorMatrix>
          </filter>
          <filter id="colorsf1366028121">
            <feColorMatrix type="matrix" values="0 0 0 0 0.99609375  0 0 0 0 0.99609375  0 0 0 0 0.99609375  0 0 0 1 0" class="icon-fecolormatrix"></feColorMatrix>
          </filter>
          <filter id="colorsb1309781337">
            <feColorMatrix type="matrix" values="0 0 0 0 0  0 0 0 0 0  0 0 0 0 0  0 0 0 1 0" class="icon-fecolormatrix"></feColorMatrix>
          </filter>
        </defs>
      </g>
    </g>
    <g transform="translate(50,68.0116958618164)">
      <g data-gra="path-name" fill-rule="" class="tp-name iconsvg-namesvg">
        <g transform="scale(1)">
          <g>
            <path d="" transform="translate(0, 0)"></path>
          </g>
        </g>
      </g>
    </g>
  </g>
  <defs v-gra="od"></defs>
</svg>